<svg width="17" height="13" viewBox="0 0 17 13" fill="none" xmlns="http://www.w3.org/2000/svg">
<path id="Vector" d="M6.46075 0.5H15.1796C15.6343 0.5 16.0703 0.680612 16.3918 1.0021C16.7133 1.32359 16.8939 1.75963 16.8939 2.21429V10.7857C16.8939 11.2404 16.7133 11.6764 16.3918 11.9979C16.0703 12.3194 15.6343 12.5 15.1796 12.5H6.46075C6.00613 12.4999 5.57017 12.3192 5.24875 11.9977L0.357039 7.106C0.196349 6.94526 0.106079 6.72728 0.106079 6.5C0.106079 6.27272 0.196349 6.05474 0.357039 5.894L5.24875 1.00229C5.57017 0.680773 6.00613 0.500097 6.46075 0.5ZM6.46075 10.7857H15.1796V2.21429H6.46075L2.17504 6.5L6.46075 10.7857ZM12.1059 6.5L13.3179 7.712C13.474 7.87366 13.5604 8.09018 13.5585 8.31492C13.5565 8.53966 13.4664 8.75464 13.3075 8.91356C13.1485 9.07248 12.9336 9.16262 12.7088 9.16458C12.4841 9.16653 12.2676 9.08014 12.1059 8.924L10.8939 7.712L9.6819 8.924C9.60283 9.00587 9.50825 9.07116 9.40367 9.11609C9.2991 9.16101 9.18662 9.18465 9.07281 9.18564C8.959 9.18663 8.84613 9.16495 8.74079 9.12185C8.63545 9.07875 8.53975 9.0151 8.45927 8.93462C8.37879 8.85414 8.31515 8.75844 8.27205 8.6531C8.22895 8.54776 8.20726 8.4349 8.20825 8.32108C8.20924 8.20727 8.23289 8.0948 8.27781 7.99023C8.32273 7.88565 8.38803 7.79107 8.4699 7.712L9.6819 6.5L8.4699 5.288C8.38803 5.20893 8.32273 5.11435 8.27781 5.00978C8.23289 4.9052 8.20924 4.79273 8.20825 4.67892C8.20726 4.5651 8.22895 4.45224 8.27205 4.3469C8.31515 4.24156 8.37879 4.14586 8.45927 4.06538C8.53975 3.9849 8.63545 3.92125 8.74079 3.87815C8.84613 3.83505 8.959 3.81337 9.07281 3.81436C9.18662 3.81535 9.2991 3.83899 9.40367 3.88391C9.50825 3.92884 9.60283 3.99413 9.6819 4.076L10.8939 5.288L12.1059 4.076C12.185 3.99413 12.2795 3.92884 12.3841 3.88391C12.4887 3.83899 12.6012 3.81535 12.715 3.81436C12.8288 3.81337 12.9417 3.83505 13.047 3.87815C13.1523 3.92125 13.248 3.9849 13.3285 4.06538C13.409 4.14586 13.4726 4.24156 13.5157 4.3469C13.5588 4.45224 13.5805 4.5651 13.5795 4.67892C13.5786 4.79273 13.5549 4.9052 13.51 5.00978C13.4651 5.11435 13.3998 5.20893 13.3179 5.288L12.1059 6.5Z" fill="#DBDBDB"/>
</svg>
